<mxfile host="app.diagrams.net" modified="2024-06-12T19:45:48.683Z" agent="Mozilla/5.0 (Windows NT 10.0; Win64; x64) AppleWebKit/537.36 (KHTML, like Gecko) Chrome/125.0.0.0 Safari/537.36" etag="C-I2736ujJvJf37vmtgc" version="24.5.4" type="github">
  <diagram name="Page-1" id="2OJG_YHXnRes9GbKR85k">
    <mxGraphModel dx="2327" dy="746" grid="1" gridSize="10" guides="1" tooltips="1" connect="1" arrows="1" fold="1" page="1" pageScale="1" pageWidth="827" pageHeight="1169" math="0" shadow="0">
      <root>
        <mxCell id="0" />
        <mxCell id="1" parent="0" />
        <mxCell id="kuXYNpqV7Vp1GtxluRGK-1" value="" style="rounded=0;whiteSpace=wrap;html=1;dashed=1;fillColor=#EBFFE6;" vertex="1" parent="1">
          <mxGeometry x="280" y="180" width="280" height="490" as="geometry" />
        </mxCell>
        <mxCell id="kuXYNpqV7Vp1GtxluRGK-2" value="" style="rounded=0;whiteSpace=wrap;html=1;dashed=1;fillColor=#EBFFE6;" vertex="1" parent="1">
          <mxGeometry x="600" y="320" width="140" height="210" as="geometry" />
        </mxCell>
        <mxCell id="kuXYNpqV7Vp1GtxluRGK-21" value="" style="rounded=1;whiteSpace=wrap;html=1;strokeWidth=3;" vertex="1" parent="1">
          <mxGeometry x="170" y="245" width="100" height="40" as="geometry" />
        </mxCell>
        <mxCell id="kuXYNpqV7Vp1GtxluRGK-23" value="" style="rounded=1;whiteSpace=wrap;html=1;strokeWidth=3;" vertex="1" parent="1">
          <mxGeometry x="40" y="400" width="95" height="50" as="geometry" />
        </mxCell>
        <mxCell id="kuXYNpqV7Vp1GtxluRGK-24" value="" style="ellipse;whiteSpace=wrap;html=1;aspect=fixed;fillColor=#000000;" vertex="1" parent="1">
          <mxGeometry x="-30" y="355" width="60" height="60" as="geometry" />
        </mxCell>
        <mxCell id="kuXYNpqV7Vp1GtxluRGK-25" value="" style="endArrow=none;html=1;rounded=0;strokeColor=#FFFFFF;strokeWidth=8;" edge="1" parent="1">
          <mxGeometry width="50" height="50" relative="1" as="geometry">
            <mxPoint x="-15" y="370" as="sourcePoint" />
            <mxPoint x="15" y="400" as="targetPoint" />
          </mxGeometry>
        </mxCell>
        <mxCell id="kuXYNpqV7Vp1GtxluRGK-26" value="" style="endArrow=none;html=1;rounded=0;strokeColor=#FFFFFF;strokeWidth=8;" edge="1" parent="1">
          <mxGeometry width="50" height="50" relative="1" as="geometry">
            <mxPoint x="-15" y="400" as="sourcePoint" />
            <mxPoint x="15" y="370" as="targetPoint" />
          </mxGeometry>
        </mxCell>
        <mxCell id="kuXYNpqV7Vp1GtxluRGK-27" value="" style="ellipse;whiteSpace=wrap;html=1;aspect=fixed;fillColor=#000000;" vertex="1" parent="1">
          <mxGeometry x="-30" y="435" width="60" height="60" as="geometry" />
        </mxCell>
        <mxCell id="kuXYNpqV7Vp1GtxluRGK-28" value="" style="endArrow=none;html=1;rounded=0;strokeColor=#FFFFFF;strokeWidth=8;" edge="1" parent="1">
          <mxGeometry width="50" height="50" relative="1" as="geometry">
            <mxPoint x="-15" y="450" as="sourcePoint" />
            <mxPoint x="15" y="480" as="targetPoint" />
          </mxGeometry>
        </mxCell>
        <mxCell id="kuXYNpqV7Vp1GtxluRGK-29" value="" style="endArrow=none;html=1;rounded=0;strokeColor=#FFFFFF;strokeWidth=8;" edge="1" parent="1">
          <mxGeometry width="50" height="50" relative="1" as="geometry">
            <mxPoint x="-15" y="480" as="sourcePoint" />
            <mxPoint x="15" y="450" as="targetPoint" />
          </mxGeometry>
        </mxCell>
        <mxCell id="kuXYNpqV7Vp1GtxluRGK-30" value="" style="rounded=1;whiteSpace=wrap;html=1;strokeWidth=3;" vertex="1" parent="1">
          <mxGeometry x="-30" y="265" width="60" height="60" as="geometry" />
        </mxCell>
        <mxCell id="kuXYNpqV7Vp1GtxluRGK-31" value="" style="rounded=1;whiteSpace=wrap;html=1;strokeWidth=3;" vertex="1" parent="1">
          <mxGeometry x="-30" y="525" width="60" height="60" as="geometry" />
        </mxCell>
        <mxCell id="kuXYNpqV7Vp1GtxluRGK-32" value="" style="rounded=1;whiteSpace=wrap;html=1;strokeWidth=3;" vertex="1" parent="1">
          <mxGeometry x="400" y="205" width="120" height="40" as="geometry" />
        </mxCell>
        <mxCell id="kuXYNpqV7Vp1GtxluRGK-38" value="" style="rounded=1;whiteSpace=wrap;html=1;strokeWidth=3;" vertex="1" parent="1">
          <mxGeometry x="610" y="325" width="120" height="40" as="geometry" />
        </mxCell>
        <mxCell id="kuXYNpqV7Vp1GtxluRGK-39" value="" style="rounded=1;whiteSpace=wrap;html=1;strokeWidth=3;" vertex="1" parent="1">
          <mxGeometry x="610" y="485" width="120" height="40" as="geometry" />
        </mxCell>
        <mxCell id="kuXYNpqV7Vp1GtxluRGK-40" value="" style="rounded=1;whiteSpace=wrap;html=1;strokeWidth=3;" vertex="1" parent="1">
          <mxGeometry x="760" y="370" width="120" height="110" as="geometry" />
        </mxCell>
        <mxCell id="kuXYNpqV7Vp1GtxluRGK-41" value="" style="rounded=1;whiteSpace=wrap;html=1;strokeWidth=3;" vertex="1" parent="1">
          <mxGeometry x="900" y="322.5" width="100" height="40" as="geometry" />
        </mxCell>
        <mxCell id="kuXYNpqV7Vp1GtxluRGK-44" value="" style="endArrow=classic;startArrow=classic;html=1;rounded=1;exitX=0;exitY=0.5;exitDx=0;exitDy=0;entryX=0;entryY=0.5;entryDx=0;entryDy=0;strokeWidth=3;curved=0;" edge="1" parent="1" source="kuXYNpqV7Vp1GtxluRGK-27" target="kuXYNpqV7Vp1GtxluRGK-24">
          <mxGeometry width="50" height="50" relative="1" as="geometry">
            <mxPoint x="480" y="330" as="sourcePoint" />
            <mxPoint x="530" y="280" as="targetPoint" />
            <Array as="points">
              <mxPoint x="-80" y="465" />
              <mxPoint x="-80" y="385" />
            </Array>
          </mxGeometry>
        </mxCell>
        <mxCell id="kuXYNpqV7Vp1GtxluRGK-45" value="" style="endArrow=classic;html=1;rounded=0;strokeWidth=3;" edge="1" parent="1">
          <mxGeometry width="50" height="50" relative="1" as="geometry">
            <mxPoint x="-165" y="424.29" as="sourcePoint" />
            <mxPoint x="-85" y="424.29" as="targetPoint" />
          </mxGeometry>
        </mxCell>
        <mxCell id="kuXYNpqV7Vp1GtxluRGK-46" value="" style="endArrow=classic;html=1;rounded=1;entryX=0;entryY=0.75;entryDx=0;entryDy=0;strokeWidth=3;strokeColor=default;curved=0;" edge="1" parent="1" target="kuXYNpqV7Vp1GtxluRGK-30">
          <mxGeometry width="50" height="50" relative="1" as="geometry">
            <mxPoint x="-80" y="340" as="sourcePoint" />
            <mxPoint x="130" y="400" as="targetPoint" />
            <Array as="points">
              <mxPoint x="-80" y="310" />
            </Array>
          </mxGeometry>
        </mxCell>
        <mxCell id="kuXYNpqV7Vp1GtxluRGK-47" value="" style="endArrow=classic;html=1;rounded=1;entryX=0;entryY=0.25;entryDx=0;entryDy=0;strokeWidth=3;curved=0;" edge="1" parent="1" target="kuXYNpqV7Vp1GtxluRGK-31">
          <mxGeometry width="50" height="50" relative="1" as="geometry">
            <mxPoint x="-80" y="510" as="sourcePoint" />
            <mxPoint x="130" y="420" as="targetPoint" />
            <Array as="points">
              <mxPoint x="-80" y="540" />
            </Array>
          </mxGeometry>
        </mxCell>
        <mxCell id="kuXYNpqV7Vp1GtxluRGK-49" value="" style="endArrow=classic;html=1;rounded=0;entryX=0;entryY=0.5;entryDx=0;entryDy=0;exitX=1;exitY=0.5;exitDx=0;exitDy=0;strokeWidth=3;" edge="1" parent="1" source="kuXYNpqV7Vp1GtxluRGK-27" target="kuXYNpqV7Vp1GtxluRGK-155">
          <mxGeometry width="50" height="50" relative="1" as="geometry">
            <mxPoint x="-50" y="465" as="sourcePoint" />
            <mxPoint x="310" y="465" as="targetPoint" />
          </mxGeometry>
        </mxCell>
        <mxCell id="kuXYNpqV7Vp1GtxluRGK-60" value="" style="endArrow=classic;html=1;rounded=0;exitX=1;exitY=0.5;exitDx=0;exitDy=0;strokeWidth=3;entryX=0.013;entryY=0.142;entryDx=0;entryDy=0;entryPerimeter=0;" edge="1" parent="1" target="kuXYNpqV7Vp1GtxluRGK-40">
          <mxGeometry width="50" height="50" relative="1" as="geometry">
            <mxPoint x="520" y="384.57" as="sourcePoint" />
            <mxPoint x="750" y="397" as="targetPoint" />
          </mxGeometry>
        </mxCell>
        <mxCell id="kuXYNpqV7Vp1GtxluRGK-61" value="" style="endArrow=classic;html=1;rounded=0;exitX=1;exitY=0.5;exitDx=0;exitDy=0;strokeWidth=3;entryX=0.019;entryY=0.878;entryDx=0;entryDy=0;entryPerimeter=0;" edge="1" parent="1" target="kuXYNpqV7Vp1GtxluRGK-40">
          <mxGeometry width="50" height="50" relative="1" as="geometry">
            <mxPoint x="520" y="465" as="sourcePoint" />
            <mxPoint x="750" y="460" as="targetPoint" />
          </mxGeometry>
        </mxCell>
        <mxCell id="kuXYNpqV7Vp1GtxluRGK-62" value="" style="endArrow=classic;html=1;rounded=0;entryX=0.75;entryY=0;entryDx=0;entryDy=0;exitX=1;exitY=0.5;exitDx=0;exitDy=0;strokeWidth=3;" edge="1" parent="1" source="kuXYNpqV7Vp1GtxluRGK-32" target="kuXYNpqV7Vp1GtxluRGK-40">
          <mxGeometry width="50" height="50" relative="1" as="geometry">
            <mxPoint x="370" y="380" as="sourcePoint" />
            <mxPoint x="420" y="330" as="targetPoint" />
            <Array as="points">
              <mxPoint x="850" y="225" />
            </Array>
          </mxGeometry>
        </mxCell>
        <mxCell id="kuXYNpqV7Vp1GtxluRGK-64" value="" style="endArrow=classic;html=1;rounded=0;entryX=0.25;entryY=0;entryDx=0;entryDy=0;exitX=1;exitY=0.5;exitDx=0;exitDy=0;strokeWidth=3;" edge="1" parent="1" source="kuXYNpqV7Vp1GtxluRGK-167" target="kuXYNpqV7Vp1GtxluRGK-40">
          <mxGeometry width="50" height="50" relative="1" as="geometry">
            <mxPoint x="540" y="280" as="sourcePoint" />
            <mxPoint x="420" y="330" as="targetPoint" />
            <Array as="points">
              <mxPoint x="790" y="305" />
            </Array>
          </mxGeometry>
        </mxCell>
        <mxCell id="kuXYNpqV7Vp1GtxluRGK-65" value="" style="endArrow=classic;html=1;rounded=0;entryX=0.75;entryY=1;entryDx=0;entryDy=0;exitX=1;exitY=0.5;exitDx=0;exitDy=0;strokeWidth=3;" edge="1" parent="1" source="kuXYNpqV7Vp1GtxluRGK-175" target="kuXYNpqV7Vp1GtxluRGK-40">
          <mxGeometry width="50" height="50" relative="1" as="geometry">
            <mxPoint x="540" y="720" as="sourcePoint" />
            <mxPoint x="420" y="410" as="targetPoint" />
            <Array as="points">
              <mxPoint x="850" y="630" />
            </Array>
          </mxGeometry>
        </mxCell>
        <mxCell id="kuXYNpqV7Vp1GtxluRGK-66" value="" style="endArrow=classic;html=1;rounded=0;entryX=0.25;entryY=1;entryDx=0;entryDy=0;exitX=1;exitY=0.5;exitDx=0;exitDy=0;strokeWidth=3;" edge="1" parent="1" source="kuXYNpqV7Vp1GtxluRGK-173" target="kuXYNpqV7Vp1GtxluRGK-40">
          <mxGeometry width="50" height="50" relative="1" as="geometry">
            <mxPoint x="540" y="600" as="sourcePoint" />
            <mxPoint x="420" y="410" as="targetPoint" />
            <Array as="points">
              <mxPoint x="790" y="550" />
            </Array>
          </mxGeometry>
        </mxCell>
        <mxCell id="kuXYNpqV7Vp1GtxluRGK-67" value="" style="endArrow=classic;startArrow=classic;html=1;rounded=0;entryX=0.75;entryY=1;entryDx=0;entryDy=0;exitX=0.75;exitY=0;exitDx=0;exitDy=0;strokeWidth=3;" edge="1" parent="1" source="kuXYNpqV7Vp1GtxluRGK-39" target="kuXYNpqV7Vp1GtxluRGK-38">
          <mxGeometry width="50" height="50" relative="1" as="geometry">
            <mxPoint x="370" y="460" as="sourcePoint" />
            <mxPoint x="420" y="410" as="targetPoint" />
          </mxGeometry>
        </mxCell>
        <mxCell id="kuXYNpqV7Vp1GtxluRGK-68" value="" style="endArrow=classic;startArrow=classic;html=1;rounded=0;entryX=0.25;entryY=1;entryDx=0;entryDy=0;exitX=0.25;exitY=0;exitDx=0;exitDy=0;strokeWidth=3;" edge="1" parent="1" source="kuXYNpqV7Vp1GtxluRGK-39" target="kuXYNpqV7Vp1GtxluRGK-38">
          <mxGeometry width="50" height="50" relative="1" as="geometry">
            <mxPoint x="370" y="460" as="sourcePoint" />
            <mxPoint x="420" y="410" as="targetPoint" />
          </mxGeometry>
        </mxCell>
        <mxCell id="kuXYNpqV7Vp1GtxluRGK-69" value="" style="endArrow=classic;html=1;rounded=0;exitX=1;exitY=0.5;exitDx=0;exitDy=0;entryX=0;entryY=0.5;entryDx=0;entryDy=0;strokeWidth=3;" edge="1" parent="1" source="kuXYNpqV7Vp1GtxluRGK-38" target="kuXYNpqV7Vp1GtxluRGK-41">
          <mxGeometry width="50" height="50" relative="1" as="geometry">
            <mxPoint x="870" y="380" as="sourcePoint" />
            <mxPoint x="920" y="330" as="targetPoint" />
          </mxGeometry>
        </mxCell>
        <mxCell id="kuXYNpqV7Vp1GtxluRGK-70" value="" style="endArrow=classic;html=1;rounded=0;exitX=1;exitY=0.5;exitDx=0;exitDy=0;entryX=0;entryY=0.5;entryDx=0;entryDy=0;strokeWidth=3;" edge="1" parent="1" target="kuXYNpqV7Vp1GtxluRGK-193">
          <mxGeometry width="50" height="50" relative="1" as="geometry">
            <mxPoint x="730" y="505" as="sourcePoint" />
            <mxPoint x="950" y="505" as="targetPoint" />
          </mxGeometry>
        </mxCell>
        <mxCell id="kuXYNpqV7Vp1GtxluRGK-71" value="" style="endArrow=classic;html=1;rounded=0;entryX=0;entryY=0.5;entryDx=0;entryDy=0;strokeWidth=3;" edge="1" parent="1" source="kuXYNpqV7Vp1GtxluRGK-40" target="kuXYNpqV7Vp1GtxluRGK-191">
          <mxGeometry width="50" height="50" relative="1" as="geometry">
            <mxPoint x="870" y="380" as="sourcePoint" />
            <mxPoint x="950" y="420" as="targetPoint" />
          </mxGeometry>
        </mxCell>
        <mxCell id="kuXYNpqV7Vp1GtxluRGK-72" value="" style="endArrow=classic;html=1;rounded=1;exitX=1;exitY=0.5;exitDx=0;exitDy=0;entryX=0.5;entryY=0;entryDx=0;entryDy=0;strokeWidth=3;curved=0;" edge="1" parent="1" source="kuXYNpqV7Vp1GtxluRGK-41" target="kuXYNpqV7Vp1GtxluRGK-30">
          <mxGeometry width="50" height="50" relative="1" as="geometry">
            <mxPoint x="680" y="280" as="sourcePoint" />
            <mxPoint x="730" y="230" as="targetPoint" />
            <Array as="points">
              <mxPoint x="1040" y="340" />
              <mxPoint x="1040" y="170" />
              <mxPoint x="590" y="170" />
              <mxPoint y="170" />
              <mxPoint y="210" />
            </Array>
          </mxGeometry>
        </mxCell>
        <mxCell id="kuXYNpqV7Vp1GtxluRGK-73" value="" style="endArrow=classic;html=1;rounded=1;entryX=0.5;entryY=1;entryDx=0;entryDy=0;exitX=1;exitY=0.5;exitDx=0;exitDy=0;strokeWidth=3;curved=0;" edge="1" parent="1" source="kuXYNpqV7Vp1GtxluRGK-193" target="kuXYNpqV7Vp1GtxluRGK-31">
          <mxGeometry width="50" height="50" relative="1" as="geometry">
            <mxPoint x="1120" y="540" as="sourcePoint" />
            <mxPoint x="150" y="470" as="targetPoint" />
            <Array as="points">
              <mxPoint x="1040" y="505" />
              <mxPoint x="1040" y="680" />
              <mxPoint x="590" y="680" />
              <mxPoint y="680" />
              <mxPoint y="630" />
            </Array>
          </mxGeometry>
        </mxCell>
        <mxCell id="kuXYNpqV7Vp1GtxluRGK-74" value="" style="endArrow=classic;html=1;rounded=1;entryX=0.5;entryY=0;entryDx=0;entryDy=0;exitX=1;exitY=0.5;exitDx=0;exitDy=0;strokeWidth=3;curved=0;" edge="1" parent="1" source="kuXYNpqV7Vp1GtxluRGK-191" target="kuXYNpqV7Vp1GtxluRGK-23">
          <mxGeometry width="50" height="50" relative="1" as="geometry">
            <mxPoint x="1120" y="420" as="sourcePoint" />
            <mxPoint x="270" y="470" as="targetPoint" />
            <Array as="points">
              <mxPoint x="1050" y="423" />
              <mxPoint x="1050" y="160" />
              <mxPoint x="570" y="160" />
              <mxPoint x="88" y="160" />
            </Array>
          </mxGeometry>
        </mxCell>
        <mxCell id="kuXYNpqV7Vp1GtxluRGK-81" value="" style="endArrow=classic;startArrow=classic;html=1;rounded=1;exitX=0;exitY=0.5;exitDx=0;exitDy=0;strokeWidth=3;curved=0;" edge="1" parent="1" source="kuXYNpqV7Vp1GtxluRGK-186">
          <mxGeometry width="50" height="50" relative="1" as="geometry">
            <mxPoint x="190" y="585" as="sourcePoint" />
            <mxPoint x="170" y="265" as="targetPoint" />
            <Array as="points">
              <mxPoint x="150" y="585" />
              <mxPoint x="150" y="265" />
            </Array>
          </mxGeometry>
        </mxCell>
        <mxCell id="kuXYNpqV7Vp1GtxluRGK-82" value="" style="endArrow=classic;html=1;rounded=0;entryX=0.5;entryY=0;entryDx=0;entryDy=0;exitX=0.5;exitY=1;exitDx=0;exitDy=0;strokeWidth=3;" edge="1" parent="1" source="kuXYNpqV7Vp1GtxluRGK-30" target="kuXYNpqV7Vp1GtxluRGK-24">
          <mxGeometry width="50" height="50" relative="1" as="geometry">
            <mxPoint x="190" y="400" as="sourcePoint" />
            <mxPoint x="240" y="350" as="targetPoint" />
          </mxGeometry>
        </mxCell>
        <mxCell id="kuXYNpqV7Vp1GtxluRGK-83" value="" style="endArrow=classic;html=1;rounded=0;exitX=0.5;exitY=0;exitDx=0;exitDy=0;entryX=0.5;entryY=1;entryDx=0;entryDy=0;strokeWidth=3;" edge="1" parent="1" source="kuXYNpqV7Vp1GtxluRGK-31" target="kuXYNpqV7Vp1GtxluRGK-27">
          <mxGeometry width="50" height="50" relative="1" as="geometry">
            <mxPoint x="190" y="400" as="sourcePoint" />
            <mxPoint x="240" y="350" as="targetPoint" />
          </mxGeometry>
        </mxCell>
        <mxCell id="kuXYNpqV7Vp1GtxluRGK-84" value="&lt;font style=&quot;font-size: 14px;&quot; face=&quot;Times New Roman&quot;&gt;&lt;b&gt;COS&lt;/b&gt;&lt;/font&gt;" style="text;html=1;align=center;verticalAlign=middle;whiteSpace=wrap;rounded=0;" vertex="1" parent="1">
          <mxGeometry x="-30" y="280" width="60" height="30" as="geometry" />
        </mxCell>
        <mxCell id="kuXYNpqV7Vp1GtxluRGK-85" value="&lt;font style=&quot;font-size: 14px;&quot; face=&quot;Times New Roman&quot;&gt;&lt;b&gt;SIN&lt;/b&gt;&lt;/font&gt;" style="text;html=1;align=center;verticalAlign=middle;whiteSpace=wrap;rounded=0;" vertex="1" parent="1">
          <mxGeometry x="-30" y="540" width="60" height="30" as="geometry" />
        </mxCell>
        <mxCell id="kuXYNpqV7Vp1GtxluRGK-86" value="&lt;div&gt;&lt;b&gt;&lt;font style=&quot;font-size: 14px;&quot; face=&quot;Times New Roman&quot;&gt;CA CODE&lt;/font&gt;&lt;/b&gt;&lt;/div&gt;&lt;div&gt;&lt;b&gt;&lt;font style=&quot;font-size: 14px;&quot; face=&quot;Times New Roman&quot;&gt;GENERATOR&lt;/font&gt;&lt;font face=&quot;9OAc3o7K2-tYkBuDYFM8&quot;&gt;&lt;br&gt;&lt;/font&gt;&lt;/b&gt; &lt;/div&gt;" style="text;html=1;align=center;verticalAlign=middle;whiteSpace=wrap;rounded=0;" vertex="1" parent="1">
          <mxGeometry x="42.5" y="407.5" width="90" height="35" as="geometry" />
        </mxCell>
        <mxCell id="kuXYNpqV7Vp1GtxluRGK-87" value="&lt;div&gt;&lt;b&gt;&lt;font style=&quot;font-size: 14px;&quot; face=&quot;Times New Roman&quot;&gt;HALF CHIP&lt;/font&gt;&lt;/b&gt;&lt;/div&gt;&lt;div&gt;&lt;b&gt;&lt;font style=&quot;font-size: 14px;&quot; face=&quot;Times New Roman&quot;&gt;ADVANCE&lt;/font&gt;&lt;font face=&quot;_-B6nYthj9-JZ_YgI90N&quot;&gt;&lt;br&gt;&lt;/font&gt;&lt;/b&gt; &lt;/div&gt;" style="text;html=1;align=center;verticalAlign=middle;whiteSpace=wrap;rounded=0;" vertex="1" parent="1">
          <mxGeometry x="175" y="250" width="90" height="30" as="geometry" />
        </mxCell>
        <mxCell id="kuXYNpqV7Vp1GtxluRGK-89" value="&lt;font style=&quot;font-size: 14px;&quot; face=&quot;Times New Roman&quot;&gt;&lt;b&gt;ACCUMULATE&lt;/b&gt;&lt;/font&gt;" style="text;html=1;align=center;verticalAlign=middle;whiteSpace=wrap;rounded=0;" vertex="1" parent="1">
          <mxGeometry x="420" y="210" width="80" height="30" as="geometry" />
        </mxCell>
        <mxCell id="kuXYNpqV7Vp1GtxluRGK-95" value="&lt;div&gt;&lt;b&gt;&lt;font style=&quot;font-size: 14px;&quot; face=&quot;Times New Roman&quot;&gt;PLL &lt;br&gt;&lt;/font&gt;&lt;/b&gt;&lt;/div&gt;&lt;div&gt;&lt;b&gt;&lt;font style=&quot;font-size: 14px;&quot; face=&quot;Times New Roman&quot;&gt;DISCRIMINATOR&lt;/font&gt;&lt;font face=&quot;qQfTcMvlBahpxPpsoyMe&quot;&gt;&lt;br&gt;&lt;/font&gt;&lt;/b&gt;&lt;/div&gt;" style="text;html=1;align=center;verticalAlign=middle;whiteSpace=wrap;rounded=0;" vertex="1" parent="1">
          <mxGeometry x="625" y="325" width="90" height="35" as="geometry" />
        </mxCell>
        <mxCell id="kuXYNpqV7Vp1GtxluRGK-96" value="&lt;div&gt;&lt;b&gt;&lt;font style=&quot;font-size: 14px;&quot; face=&quot;Times New Roman&quot;&gt;FLL &lt;br&gt;&lt;/font&gt;&lt;/b&gt;&lt;/div&gt;&lt;div&gt;&lt;b&gt;&lt;font style=&quot;font-size: 14px;&quot; face=&quot;Times New Roman&quot;&gt;DISCRIMINATOR&lt;/font&gt;&lt;font face=&quot;qQfTcMvlBahpxPpsoyMe&quot;&gt;&lt;br&gt;&lt;/font&gt;&lt;/b&gt;&lt;/div&gt;" style="text;html=1;align=center;verticalAlign=middle;whiteSpace=wrap;rounded=0;" vertex="1" parent="1">
          <mxGeometry x="625" y="490" width="90" height="30" as="geometry" />
        </mxCell>
        <mxCell id="kuXYNpqV7Vp1GtxluRGK-97" value="&lt;div&gt;&lt;b&gt;&lt;font style=&quot;font-size: 14px;&quot; face=&quot;Times New Roman&quot;&gt;DLL &lt;br&gt;&lt;/font&gt;&lt;/b&gt;&lt;/div&gt;&lt;div&gt;&lt;b&gt;&lt;font style=&quot;font-size: 14px;&quot; face=&quot;Times New Roman&quot;&gt;DISCRIMINATOR&lt;/font&gt;&lt;font face=&quot;qQfTcMvlBahpxPpsoyMe&quot;&gt;&lt;br&gt;&lt;/font&gt;&lt;/b&gt;&lt;/div&gt;" style="text;html=1;align=center;verticalAlign=middle;whiteSpace=wrap;rounded=0;" vertex="1" parent="1">
          <mxGeometry x="775" y="405" width="90" height="30" as="geometry" />
        </mxCell>
        <mxCell id="kuXYNpqV7Vp1GtxluRGK-98" value="&lt;div&gt;&lt;b&gt;&lt;font style=&quot;font-size: 14px;&quot; face=&quot;Times New Roman&quot;&gt;A&lt;/font&gt;&lt;/b&gt;&lt;/div&gt;&lt;div&gt;&lt;b&gt;&lt;font size=&quot;3&quot; face=&quot;Fm1BIgV4w-0KeYZKZ_WM&quot;&gt;D&lt;/font&gt;&lt;/b&gt;&lt;/div&gt;&lt;div&gt;&lt;b&gt;&lt;font size=&quot;3&quot; face=&quot;Fm1BIgV4w-0KeYZKZ_WM&quot;&gt;P&lt;/font&gt;&lt;/b&gt;&lt;/div&gt;&lt;div&gt;&lt;b&gt;&lt;font size=&quot;3&quot; face=&quot;Fm1BIgV4w-0KeYZKZ_WM&quot;&gt;L&lt;/font&gt;&lt;/b&gt;&lt;/div&gt;&lt;div&gt;&lt;b&gt;&lt;font face=&quot;Fm1BIgV4w-0KeYZKZ_WM&quot;&gt;&lt;font size=&quot;3&quot;&gt;L&lt;/font&gt;&lt;br&gt;&lt;/font&gt;&lt;/b&gt;&lt;/div&gt;" style="text;html=1;align=center;verticalAlign=middle;whiteSpace=wrap;rounded=0;" vertex="1" parent="1">
          <mxGeometry x="-650" y="670" width="60" height="95" as="geometry" />
        </mxCell>
        <mxCell id="kuXYNpqV7Vp1GtxluRGK-99" value="&lt;font style=&quot;font-size: 14px;&quot; face=&quot;Times New Roman&quot;&gt;&lt;b&gt;LOOP FILTER&lt;/b&gt;&lt;/font&gt;" style="text;html=1;align=center;verticalAlign=middle;whiteSpace=wrap;rounded=0;" vertex="1" parent="1">
          <mxGeometry x="900" y="327.5" width="101.25" height="30" as="geometry" />
        </mxCell>
        <mxCell id="kuXYNpqV7Vp1GtxluRGK-102" value="&lt;font style=&quot;font-size: 14px;&quot; face=&quot;Times New Roman&quot;&gt;&lt;b&gt;UPDATED&amp;nbsp;&lt;/b&gt;&lt;/font&gt;&lt;div&gt;&lt;font style=&quot;font-size: 14px;&quot; face=&quot;Times New Roman&quot;&gt;&lt;b&gt;PHASE&lt;/b&gt;&lt;/font&gt;&lt;/div&gt;" style="text;html=1;align=center;verticalAlign=middle;whiteSpace=wrap;rounded=0;" vertex="1" parent="1">
          <mxGeometry x="-150" y="350" width="80" height="30" as="geometry" />
        </mxCell>
        <mxCell id="kuXYNpqV7Vp1GtxluRGK-103" value="&lt;font style=&quot;font-size: 14px;&quot; face=&quot;Times New Roman&quot;&gt;&lt;b&gt;UPDATED&amp;nbsp;&lt;/b&gt;&lt;/font&gt;&lt;div&gt;&lt;font style=&quot;font-size: 14px;&quot; face=&quot;Times New Roman&quot;&gt;&lt;b&gt;FREQUENCY&lt;br&gt;&lt;/b&gt;&lt;/font&gt;&lt;/div&gt;" style="text;html=1;align=center;verticalAlign=middle;whiteSpace=wrap;rounded=0;" vertex="1" parent="1">
          <mxGeometry x="-165" y="470" width="95" height="30" as="geometry" />
        </mxCell>
        <mxCell id="kuXYNpqV7Vp1GtxluRGK-104" value="&lt;font style=&quot;font-size: 14px;&quot; face=&quot;Times New Roman&quot;&gt;&lt;b&gt;UPDATED&amp;nbsp;&lt;/b&gt;&lt;/font&gt;&lt;div&gt;&lt;font style=&quot;font-size: 14px;&quot; face=&quot;Times New Roman&quot;&gt;&lt;b&gt;PHASE&lt;/b&gt;&lt;/font&gt;&lt;/div&gt;" style="text;html=1;align=center;verticalAlign=middle;whiteSpace=wrap;rounded=0;" vertex="1" parent="1">
          <mxGeometry x="1060" y="325" width="70" height="30" as="geometry" />
        </mxCell>
        <mxCell id="kuXYNpqV7Vp1GtxluRGK-105" value="&lt;font style=&quot;font-size: 14px;&quot; face=&quot;Times New Roman&quot;&gt;&lt;b&gt;UPDATED&amp;nbsp;&lt;/b&gt;&lt;/font&gt;&lt;div&gt;&lt;font style=&quot;font-size: 14px;&quot; face=&quot;Times New Roman&quot;&gt;&lt;b&gt;FREQUENCY&lt;br&gt;&lt;/b&gt;&lt;/font&gt;&lt;/div&gt;" style="text;html=1;align=center;verticalAlign=middle;whiteSpace=wrap;rounded=0;" vertex="1" parent="1">
          <mxGeometry x="1045" y="515" width="100" height="30" as="geometry" />
        </mxCell>
        <mxCell id="kuXYNpqV7Vp1GtxluRGK-106" value="&lt;font style=&quot;font-size: 14px;&quot; face=&quot;Times New Roman&quot;&gt;&lt;b&gt;UPDATED&amp;nbsp;&lt;/b&gt;&lt;/font&gt;&lt;div&gt;&lt;font style=&quot;font-size: 14px;&quot; face=&quot;Times New Roman&quot;&gt;&lt;b&gt;DELAY&lt;br&gt;&lt;/b&gt;&lt;/font&gt;&lt;/div&gt;" style="text;html=1;align=center;verticalAlign=middle;whiteSpace=wrap;rounded=0;" vertex="1" parent="1">
          <mxGeometry x="1055" y="420" width="80" height="30" as="geometry" />
        </mxCell>
        <mxCell id="kuXYNpqV7Vp1GtxluRGK-107" value="&lt;font style=&quot;font-size: 14px;&quot; face=&quot;Times New Roman&quot;&gt;&lt;b&gt;1 ms DATA&lt;/b&gt;&lt;/font&gt;" style="text;html=1;align=center;verticalAlign=middle;whiteSpace=wrap;rounded=0;" vertex="1" parent="1">
          <mxGeometry x="-245" y="410" width="80" height="30" as="geometry" />
        </mxCell>
        <mxCell id="kuXYNpqV7Vp1GtxluRGK-113" value="" style="ellipse;whiteSpace=wrap;html=1;aspect=fixed;fillColor=#000000;" vertex="1" parent="1">
          <mxGeometry x="310" y="1070" width="60" height="60" as="geometry" />
        </mxCell>
        <mxCell id="kuXYNpqV7Vp1GtxluRGK-114" value="" style="endArrow=none;html=1;rounded=0;strokeColor=#FFFFFF;strokeWidth=8;" edge="1" parent="1">
          <mxGeometry width="50" height="50" relative="1" as="geometry">
            <mxPoint x="325" y="1085" as="sourcePoint" />
            <mxPoint x="355" y="1115" as="targetPoint" />
          </mxGeometry>
        </mxCell>
        <mxCell id="kuXYNpqV7Vp1GtxluRGK-115" value="" style="endArrow=none;html=1;rounded=0;strokeColor=#FFFFFF;strokeWidth=8;" edge="1" parent="1">
          <mxGeometry width="50" height="50" relative="1" as="geometry">
            <mxPoint x="325" y="1115" as="sourcePoint" />
            <mxPoint x="355" y="1085" as="targetPoint" />
          </mxGeometry>
        </mxCell>
        <mxCell id="kuXYNpqV7Vp1GtxluRGK-116" value="" style="ellipse;whiteSpace=wrap;html=1;aspect=fixed;fillColor=#000000;" vertex="1" parent="1">
          <mxGeometry x="310" y="990" width="60" height="60" as="geometry" />
        </mxCell>
        <mxCell id="kuXYNpqV7Vp1GtxluRGK-117" value="" style="endArrow=none;html=1;rounded=0;strokeColor=#FFFFFF;strokeWidth=8;" edge="1" parent="1">
          <mxGeometry width="50" height="50" relative="1" as="geometry">
            <mxPoint x="325" y="1005" as="sourcePoint" />
            <mxPoint x="355" y="1035" as="targetPoint" />
          </mxGeometry>
        </mxCell>
        <mxCell id="kuXYNpqV7Vp1GtxluRGK-118" value="" style="endArrow=none;html=1;rounded=0;strokeColor=#FFFFFF;strokeWidth=8;" edge="1" parent="1">
          <mxGeometry width="50" height="50" relative="1" as="geometry">
            <mxPoint x="325" y="1035" as="sourcePoint" />
            <mxPoint x="355" y="1005" as="targetPoint" />
          </mxGeometry>
        </mxCell>
        <mxCell id="kuXYNpqV7Vp1GtxluRGK-119" value="" style="ellipse;whiteSpace=wrap;html=1;aspect=fixed;fillColor=#000000;" vertex="1" parent="1">
          <mxGeometry x="310" y="1230" width="60" height="60" as="geometry" />
        </mxCell>
        <mxCell id="kuXYNpqV7Vp1GtxluRGK-120" value="" style="endArrow=none;html=1;rounded=0;strokeColor=#FFFFFF;strokeWidth=8;" edge="1" parent="1">
          <mxGeometry width="50" height="50" relative="1" as="geometry">
            <mxPoint x="325" y="1245" as="sourcePoint" />
            <mxPoint x="355" y="1275" as="targetPoint" />
          </mxGeometry>
        </mxCell>
        <mxCell id="kuXYNpqV7Vp1GtxluRGK-121" value="" style="endArrow=none;html=1;rounded=0;strokeColor=#FFFFFF;strokeWidth=8;" edge="1" parent="1">
          <mxGeometry width="50" height="50" relative="1" as="geometry">
            <mxPoint x="325" y="1275" as="sourcePoint" />
            <mxPoint x="355" y="1245" as="targetPoint" />
          </mxGeometry>
        </mxCell>
        <mxCell id="kuXYNpqV7Vp1GtxluRGK-122" value="" style="ellipse;whiteSpace=wrap;html=1;aspect=fixed;fillColor=#000000;" vertex="1" parent="1">
          <mxGeometry x="310" y="1150" width="60" height="60" as="geometry" />
        </mxCell>
        <mxCell id="kuXYNpqV7Vp1GtxluRGK-123" value="" style="endArrow=none;html=1;rounded=0;strokeColor=#FFFFFF;strokeWidth=8;" edge="1" parent="1">
          <mxGeometry width="50" height="50" relative="1" as="geometry">
            <mxPoint x="325" y="1165" as="sourcePoint" />
            <mxPoint x="355" y="1195" as="targetPoint" />
          </mxGeometry>
        </mxCell>
        <mxCell id="kuXYNpqV7Vp1GtxluRGK-124" value="" style="endArrow=none;html=1;rounded=0;strokeColor=#FFFFFF;strokeWidth=8;" edge="1" parent="1">
          <mxGeometry width="50" height="50" relative="1" as="geometry">
            <mxPoint x="325" y="1195" as="sourcePoint" />
            <mxPoint x="355" y="1165" as="targetPoint" />
          </mxGeometry>
        </mxCell>
        <mxCell id="kuXYNpqV7Vp1GtxluRGK-125" value="" style="ellipse;whiteSpace=wrap;html=1;aspect=fixed;fillColor=#000000;" vertex="1" parent="1">
          <mxGeometry x="310" y="1390" width="60" height="60" as="geometry" />
        </mxCell>
        <mxCell id="kuXYNpqV7Vp1GtxluRGK-126" value="" style="endArrow=none;html=1;rounded=0;strokeColor=#FFFFFF;strokeWidth=8;" edge="1" parent="1">
          <mxGeometry width="50" height="50" relative="1" as="geometry">
            <mxPoint x="325" y="1405" as="sourcePoint" />
            <mxPoint x="355" y="1435" as="targetPoint" />
          </mxGeometry>
        </mxCell>
        <mxCell id="kuXYNpqV7Vp1GtxluRGK-127" value="" style="endArrow=none;html=1;rounded=0;strokeColor=#FFFFFF;strokeWidth=8;" edge="1" parent="1">
          <mxGeometry width="50" height="50" relative="1" as="geometry">
            <mxPoint x="325" y="1435" as="sourcePoint" />
            <mxPoint x="355" y="1405" as="targetPoint" />
          </mxGeometry>
        </mxCell>
        <mxCell id="kuXYNpqV7Vp1GtxluRGK-128" value="" style="ellipse;whiteSpace=wrap;html=1;aspect=fixed;fillColor=#000000;" vertex="1" parent="1">
          <mxGeometry x="310" y="1310" width="60" height="60" as="geometry" />
        </mxCell>
        <mxCell id="kuXYNpqV7Vp1GtxluRGK-129" value="" style="endArrow=none;html=1;rounded=0;strokeColor=#FFFFFF;strokeWidth=8;" edge="1" parent="1">
          <mxGeometry width="50" height="50" relative="1" as="geometry">
            <mxPoint x="325" y="1325" as="sourcePoint" />
            <mxPoint x="355" y="1355" as="targetPoint" />
          </mxGeometry>
        </mxCell>
        <mxCell id="kuXYNpqV7Vp1GtxluRGK-130" value="" style="endArrow=none;html=1;rounded=0;strokeColor=#FFFFFF;strokeWidth=8;" edge="1" parent="1">
          <mxGeometry width="50" height="50" relative="1" as="geometry">
            <mxPoint x="325" y="1355" as="sourcePoint" />
            <mxPoint x="355" y="1325" as="targetPoint" />
          </mxGeometry>
        </mxCell>
        <mxCell id="kuXYNpqV7Vp1GtxluRGK-149" value="" style="ellipse;whiteSpace=wrap;html=1;aspect=fixed;fillColor=#000000;" vertex="1" parent="1">
          <mxGeometry x="320" y="275" width="60" height="60" as="geometry" />
        </mxCell>
        <mxCell id="kuXYNpqV7Vp1GtxluRGK-150" value="" style="endArrow=none;html=1;rounded=0;strokeColor=#FFFFFF;strokeWidth=8;" edge="1" parent="1">
          <mxGeometry width="50" height="50" relative="1" as="geometry">
            <mxPoint x="335" y="290" as="sourcePoint" />
            <mxPoint x="365" y="320" as="targetPoint" />
          </mxGeometry>
        </mxCell>
        <mxCell id="kuXYNpqV7Vp1GtxluRGK-151" value="" style="endArrow=none;html=1;rounded=0;strokeColor=#FFFFFF;strokeWidth=8;" edge="1" parent="1">
          <mxGeometry width="50" height="50" relative="1" as="geometry">
            <mxPoint x="335" y="320" as="sourcePoint" />
            <mxPoint x="365" y="290" as="targetPoint" />
          </mxGeometry>
        </mxCell>
        <mxCell id="kuXYNpqV7Vp1GtxluRGK-152" value="" style="ellipse;whiteSpace=wrap;html=1;aspect=fixed;fillColor=#000000;" vertex="1" parent="1">
          <mxGeometry x="320" y="195" width="60" height="60" as="geometry" />
        </mxCell>
        <mxCell id="kuXYNpqV7Vp1GtxluRGK-153" value="" style="endArrow=none;html=1;rounded=0;strokeColor=#FFFFFF;strokeWidth=8;" edge="1" parent="1">
          <mxGeometry width="50" height="50" relative="1" as="geometry">
            <mxPoint x="335" y="210" as="sourcePoint" />
            <mxPoint x="365" y="240" as="targetPoint" />
          </mxGeometry>
        </mxCell>
        <mxCell id="kuXYNpqV7Vp1GtxluRGK-154" value="" style="endArrow=none;html=1;rounded=0;strokeColor=#FFFFFF;strokeWidth=8;" edge="1" parent="1">
          <mxGeometry width="50" height="50" relative="1" as="geometry">
            <mxPoint x="335" y="240" as="sourcePoint" />
            <mxPoint x="365" y="210" as="targetPoint" />
          </mxGeometry>
        </mxCell>
        <mxCell id="kuXYNpqV7Vp1GtxluRGK-155" value="" style="ellipse;whiteSpace=wrap;html=1;aspect=fixed;fillColor=#000000;" vertex="1" parent="1">
          <mxGeometry x="320" y="435" width="60" height="60" as="geometry" />
        </mxCell>
        <mxCell id="kuXYNpqV7Vp1GtxluRGK-156" value="" style="endArrow=none;html=1;rounded=0;strokeColor=#FFFFFF;strokeWidth=8;" edge="1" parent="1">
          <mxGeometry width="50" height="50" relative="1" as="geometry">
            <mxPoint x="335" y="450" as="sourcePoint" />
            <mxPoint x="365" y="480" as="targetPoint" />
          </mxGeometry>
        </mxCell>
        <mxCell id="kuXYNpqV7Vp1GtxluRGK-157" value="" style="endArrow=none;html=1;rounded=0;strokeColor=#FFFFFF;strokeWidth=8;" edge="1" parent="1">
          <mxGeometry width="50" height="50" relative="1" as="geometry">
            <mxPoint x="335" y="480" as="sourcePoint" />
            <mxPoint x="365" y="450" as="targetPoint" />
          </mxGeometry>
        </mxCell>
        <mxCell id="kuXYNpqV7Vp1GtxluRGK-158" value="" style="ellipse;whiteSpace=wrap;html=1;aspect=fixed;fillColor=#000000;" vertex="1" parent="1">
          <mxGeometry x="320" y="355" width="60" height="60" as="geometry" />
        </mxCell>
        <mxCell id="kuXYNpqV7Vp1GtxluRGK-159" value="" style="endArrow=none;html=1;rounded=0;strokeColor=#FFFFFF;strokeWidth=8;" edge="1" parent="1">
          <mxGeometry width="50" height="50" relative="1" as="geometry">
            <mxPoint x="335" y="370" as="sourcePoint" />
            <mxPoint x="365" y="400" as="targetPoint" />
          </mxGeometry>
        </mxCell>
        <mxCell id="kuXYNpqV7Vp1GtxluRGK-160" value="" style="endArrow=none;html=1;rounded=0;strokeColor=#FFFFFF;strokeWidth=8;" edge="1" parent="1">
          <mxGeometry width="50" height="50" relative="1" as="geometry">
            <mxPoint x="335" y="400" as="sourcePoint" />
            <mxPoint x="365" y="370" as="targetPoint" />
          </mxGeometry>
        </mxCell>
        <mxCell id="kuXYNpqV7Vp1GtxluRGK-161" value="" style="ellipse;whiteSpace=wrap;html=1;aspect=fixed;fillColor=#000000;" vertex="1" parent="1">
          <mxGeometry x="320" y="595" width="60" height="60" as="geometry" />
        </mxCell>
        <mxCell id="kuXYNpqV7Vp1GtxluRGK-162" value="" style="endArrow=none;html=1;rounded=0;strokeColor=#FFFFFF;strokeWidth=8;" edge="1" parent="1">
          <mxGeometry width="50" height="50" relative="1" as="geometry">
            <mxPoint x="335" y="610" as="sourcePoint" />
            <mxPoint x="365" y="640" as="targetPoint" />
          </mxGeometry>
        </mxCell>
        <mxCell id="kuXYNpqV7Vp1GtxluRGK-163" value="" style="endArrow=none;html=1;rounded=0;strokeColor=#FFFFFF;strokeWidth=8;" edge="1" parent="1">
          <mxGeometry width="50" height="50" relative="1" as="geometry">
            <mxPoint x="335" y="640" as="sourcePoint" />
            <mxPoint x="365" y="610" as="targetPoint" />
          </mxGeometry>
        </mxCell>
        <mxCell id="kuXYNpqV7Vp1GtxluRGK-164" value="" style="ellipse;whiteSpace=wrap;html=1;aspect=fixed;fillColor=#000000;" vertex="1" parent="1">
          <mxGeometry x="320" y="515" width="60" height="60" as="geometry" />
        </mxCell>
        <mxCell id="kuXYNpqV7Vp1GtxluRGK-165" value="" style="endArrow=none;html=1;rounded=0;strokeColor=#FFFFFF;strokeWidth=8;" edge="1" parent="1">
          <mxGeometry width="50" height="50" relative="1" as="geometry">
            <mxPoint x="335" y="530" as="sourcePoint" />
            <mxPoint x="365" y="560" as="targetPoint" />
          </mxGeometry>
        </mxCell>
        <mxCell id="kuXYNpqV7Vp1GtxluRGK-166" value="" style="endArrow=none;html=1;rounded=0;strokeColor=#FFFFFF;strokeWidth=8;" edge="1" parent="1">
          <mxGeometry width="50" height="50" relative="1" as="geometry">
            <mxPoint x="335" y="560" as="sourcePoint" />
            <mxPoint x="365" y="530" as="targetPoint" />
          </mxGeometry>
        </mxCell>
        <mxCell id="kuXYNpqV7Vp1GtxluRGK-167" value="" style="rounded=1;whiteSpace=wrap;html=1;strokeWidth=3;" vertex="1" parent="1">
          <mxGeometry x="400" y="285" width="120" height="40" as="geometry" />
        </mxCell>
        <mxCell id="kuXYNpqV7Vp1GtxluRGK-168" value="&lt;font style=&quot;font-size: 14px;&quot; face=&quot;Times New Roman&quot;&gt;&lt;b&gt;ACCUMULATE&lt;/b&gt;&lt;/font&gt;" style="text;html=1;align=center;verticalAlign=middle;whiteSpace=wrap;rounded=0;" vertex="1" parent="1">
          <mxGeometry x="420" y="290" width="80" height="30" as="geometry" />
        </mxCell>
        <mxCell id="kuXYNpqV7Vp1GtxluRGK-169" value="" style="rounded=1;whiteSpace=wrap;html=1;strokeWidth=3;" vertex="1" parent="1">
          <mxGeometry x="400" y="365" width="120" height="40" as="geometry" />
        </mxCell>
        <mxCell id="kuXYNpqV7Vp1GtxluRGK-170" value="&lt;font style=&quot;font-size: 14px;&quot; face=&quot;Times New Roman&quot;&gt;&lt;b&gt;ACCUMULATE&lt;/b&gt;&lt;/font&gt;" style="text;html=1;align=center;verticalAlign=middle;whiteSpace=wrap;rounded=0;" vertex="1" parent="1">
          <mxGeometry x="420" y="370" width="80" height="30" as="geometry" />
        </mxCell>
        <mxCell id="kuXYNpqV7Vp1GtxluRGK-171" value="" style="rounded=1;whiteSpace=wrap;html=1;strokeWidth=3;" vertex="1" parent="1">
          <mxGeometry x="400" y="445" width="120" height="40" as="geometry" />
        </mxCell>
        <mxCell id="kuXYNpqV7Vp1GtxluRGK-172" value="&lt;font style=&quot;font-size: 14px;&quot; face=&quot;Times New Roman&quot;&gt;&lt;b&gt;ACCUMULATE&lt;/b&gt;&lt;/font&gt;" style="text;html=1;align=center;verticalAlign=middle;whiteSpace=wrap;rounded=0;" vertex="1" parent="1">
          <mxGeometry x="420" y="450" width="80" height="30" as="geometry" />
        </mxCell>
        <mxCell id="kuXYNpqV7Vp1GtxluRGK-173" value="" style="rounded=1;whiteSpace=wrap;html=1;strokeWidth=3;" vertex="1" parent="1">
          <mxGeometry x="400" y="530" width="120" height="40" as="geometry" />
        </mxCell>
        <mxCell id="kuXYNpqV7Vp1GtxluRGK-174" value="&lt;font style=&quot;font-size: 14px;&quot; face=&quot;Times New Roman&quot;&gt;&lt;b&gt;ACCUMULATE&lt;/b&gt;&lt;/font&gt;" style="text;html=1;align=center;verticalAlign=middle;whiteSpace=wrap;rounded=0;" vertex="1" parent="1">
          <mxGeometry x="420" y="535" width="80" height="30" as="geometry" />
        </mxCell>
        <mxCell id="kuXYNpqV7Vp1GtxluRGK-175" value="" style="rounded=1;whiteSpace=wrap;html=1;strokeWidth=3;" vertex="1" parent="1">
          <mxGeometry x="400" y="610" width="120" height="40" as="geometry" />
        </mxCell>
        <mxCell id="kuXYNpqV7Vp1GtxluRGK-176" value="&lt;font style=&quot;font-size: 14px;&quot; face=&quot;Times New Roman&quot;&gt;&lt;b&gt;ACCUMULATE&lt;/b&gt;&lt;/font&gt;" style="text;html=1;align=center;verticalAlign=middle;whiteSpace=wrap;rounded=0;" vertex="1" parent="1">
          <mxGeometry x="420" y="615" width="80" height="30" as="geometry" />
        </mxCell>
        <mxCell id="kuXYNpqV7Vp1GtxluRGK-177" value="" style="endArrow=classic;html=1;rounded=0;entryX=0;entryY=0.5;entryDx=0;entryDy=0;exitX=1;exitY=0.5;exitDx=0;exitDy=0;strokeWidth=3;" edge="1" parent="1" source="kuXYNpqV7Vp1GtxluRGK-24">
          <mxGeometry width="50" height="50" relative="1" as="geometry">
            <mxPoint x="-50" y="384.47" as="sourcePoint" />
            <mxPoint x="320" y="384.47" as="targetPoint" />
          </mxGeometry>
        </mxCell>
        <mxCell id="kuXYNpqV7Vp1GtxluRGK-178" value="" style="endArrow=classic;html=1;rounded=0;exitX=1;exitY=0.5;exitDx=0;exitDy=0;strokeWidth=3;" edge="1" parent="1" source="kuXYNpqV7Vp1GtxluRGK-23">
          <mxGeometry width="50" height="50" relative="1" as="geometry">
            <mxPoint x="15" y="170" as="sourcePoint" />
            <mxPoint x="350" y="425" as="targetPoint" />
          </mxGeometry>
        </mxCell>
        <mxCell id="kuXYNpqV7Vp1GtxluRGK-181" value="" style="endArrow=none;html=1;rounded=0;entryX=0.5;entryY=1;entryDx=0;entryDy=0;exitX=0.5;exitY=0;exitDx=0;exitDy=0;strokeWidth=3;" edge="1" parent="1" source="kuXYNpqV7Vp1GtxluRGK-149" target="kuXYNpqV7Vp1GtxluRGK-152">
          <mxGeometry width="50" height="50" relative="1" as="geometry">
            <mxPoint x="110" y="370" as="sourcePoint" />
            <mxPoint x="160" y="320" as="targetPoint" />
            <Array as="points">
              <mxPoint x="350" y="260" />
            </Array>
          </mxGeometry>
        </mxCell>
        <mxCell id="kuXYNpqV7Vp1GtxluRGK-182" value="" style="endArrow=none;html=1;rounded=0;entryX=0.5;entryY=1;entryDx=0;entryDy=0;exitX=0.5;exitY=0;exitDx=0;exitDy=0;strokeWidth=3;" edge="1" parent="1">
          <mxGeometry width="50" height="50" relative="1" as="geometry">
            <mxPoint x="349.93" y="435" as="sourcePoint" />
            <mxPoint x="349.93" y="415" as="targetPoint" />
            <Array as="points">
              <mxPoint x="349.93" y="420" />
            </Array>
          </mxGeometry>
        </mxCell>
        <mxCell id="kuXYNpqV7Vp1GtxluRGK-183" value="" style="endArrow=none;html=1;rounded=0;entryX=0.5;entryY=1;entryDx=0;entryDy=0;exitX=0.5;exitY=0;exitDx=0;exitDy=0;strokeWidth=3;" edge="1" parent="1">
          <mxGeometry width="50" height="50" relative="1" as="geometry">
            <mxPoint x="349.93" y="595" as="sourcePoint" />
            <mxPoint x="349.93" y="575" as="targetPoint" />
            <Array as="points">
              <mxPoint x="349.93" y="580" />
            </Array>
          </mxGeometry>
        </mxCell>
        <mxCell id="kuXYNpqV7Vp1GtxluRGK-184" value="" style="endArrow=classic;html=1;rounded=0;exitX=1;exitY=0.5;exitDx=0;exitDy=0;strokeWidth=3;" edge="1" parent="1">
          <mxGeometry width="50" height="50" relative="1" as="geometry">
            <mxPoint x="270" y="264.82" as="sourcePoint" />
            <mxPoint x="350" y="265.03000000000003" as="targetPoint" />
          </mxGeometry>
        </mxCell>
        <mxCell id="kuXYNpqV7Vp1GtxluRGK-186" value="" style="rounded=1;whiteSpace=wrap;html=1;strokeWidth=3;" vertex="1" parent="1">
          <mxGeometry x="170" y="565" width="100" height="40" as="geometry" />
        </mxCell>
        <mxCell id="kuXYNpqV7Vp1GtxluRGK-187" value="&lt;div&gt;&lt;b&gt;&lt;font style=&quot;font-size: 14px;&quot; face=&quot;Times New Roman&quot;&gt;HALF CHIP&lt;/font&gt;&lt;/b&gt;&lt;/div&gt;&lt;div&gt;&lt;b style=&quot;font-size: 14px;&quot;&gt;&lt;font face=&quot;Times New Roman&quot;&gt;DELAY&lt;/font&gt;&lt;/b&gt;&lt;/div&gt;" style="text;html=1;align=center;verticalAlign=middle;whiteSpace=wrap;rounded=0;" vertex="1" parent="1">
          <mxGeometry x="180" y="570" width="90" height="30" as="geometry" />
        </mxCell>
        <mxCell id="kuXYNpqV7Vp1GtxluRGK-188" value="" style="endArrow=classic;html=1;rounded=0;exitX=1;exitY=0.5;exitDx=0;exitDy=0;strokeWidth=3;" edge="1" parent="1">
          <mxGeometry width="50" height="50" relative="1" as="geometry">
            <mxPoint x="270" y="584.8199999999999" as="sourcePoint" />
            <mxPoint x="350" y="585.03" as="targetPoint" />
          </mxGeometry>
        </mxCell>
        <mxCell id="kuXYNpqV7Vp1GtxluRGK-190" value="" style="rounded=1;whiteSpace=wrap;html=1;strokeWidth=3;" vertex="1" parent="1">
          <mxGeometry x="900" y="402.5" width="100" height="40" as="geometry" />
        </mxCell>
        <mxCell id="kuXYNpqV7Vp1GtxluRGK-191" value="&lt;font style=&quot;font-size: 14px;&quot; face=&quot;Times New Roman&quot;&gt;&lt;b&gt;LOOP FILTER&lt;/b&gt;&lt;/font&gt;" style="text;html=1;align=center;verticalAlign=middle;whiteSpace=wrap;rounded=0;" vertex="1" parent="1">
          <mxGeometry x="900" y="407.5" width="101.25" height="30" as="geometry" />
        </mxCell>
        <mxCell id="kuXYNpqV7Vp1GtxluRGK-192" value="" style="rounded=1;whiteSpace=wrap;html=1;strokeWidth=3;" vertex="1" parent="1">
          <mxGeometry x="900" y="485" width="100" height="40" as="geometry" />
        </mxCell>
        <mxCell id="kuXYNpqV7Vp1GtxluRGK-193" value="&lt;font style=&quot;font-size: 14px;&quot; face=&quot;Times New Roman&quot;&gt;&lt;b&gt;LOOP FILTER&lt;/b&gt;&lt;/font&gt;" style="text;html=1;align=center;verticalAlign=middle;whiteSpace=wrap;rounded=0;" vertex="1" parent="1">
          <mxGeometry x="900" y="490" width="101.25" height="30" as="geometry" />
        </mxCell>
        <mxCell id="kuXYNpqV7Vp1GtxluRGK-197" value="&lt;font style=&quot;font-size: 12px;&quot; face=&quot;Times New Roman&quot;&gt;&lt;b style=&quot;&quot;&gt;I_E&lt;/b&gt;&lt;/font&gt;" style="text;html=1;align=center;verticalAlign=middle;whiteSpace=wrap;rounded=0;" vertex="1" parent="1">
          <mxGeometry x="570" y="205" width="20" height="10" as="geometry" />
        </mxCell>
        <mxCell id="kuXYNpqV7Vp1GtxluRGK-198" value="&lt;font style=&quot;font-size: 12px;&quot; face=&quot;Times New Roman&quot;&gt;&lt;b style=&quot;&quot;&gt;Q_E&lt;/b&gt;&lt;/font&gt;" style="text;html=1;align=center;verticalAlign=middle;whiteSpace=wrap;rounded=0;" vertex="1" parent="1">
          <mxGeometry x="570" y="290" width="20" height="10" as="geometry" />
        </mxCell>
        <mxCell id="kuXYNpqV7Vp1GtxluRGK-199" value="&lt;font style=&quot;font-size: 12px;&quot; face=&quot;Times New Roman&quot;&gt;&lt;b style=&quot;&quot;&gt;Q_P&lt;/b&gt;&lt;/font&gt;" style="text;html=1;align=center;verticalAlign=middle;whiteSpace=wrap;rounded=0;" vertex="1" parent="1">
          <mxGeometry x="570" y="450" width="20" height="10" as="geometry" />
        </mxCell>
        <mxCell id="kuXYNpqV7Vp1GtxluRGK-200" value="&lt;font style=&quot;font-size: 12px;&quot; face=&quot;Times New Roman&quot;&gt;&lt;b style=&quot;&quot;&gt;Q_L&lt;/b&gt;&lt;/font&gt;" style="text;html=1;align=center;verticalAlign=middle;whiteSpace=wrap;rounded=0;" vertex="1" parent="1">
          <mxGeometry x="570" y="615" width="20" height="10" as="geometry" />
        </mxCell>
        <mxCell id="kuXYNpqV7Vp1GtxluRGK-201" value="&lt;font style=&quot;font-size: 12px;&quot; face=&quot;Times New Roman&quot;&gt;&lt;b style=&quot;&quot;&gt;I_P&lt;/b&gt;&lt;/font&gt;" style="text;html=1;align=center;verticalAlign=middle;whiteSpace=wrap;rounded=0;" vertex="1" parent="1">
          <mxGeometry x="570" y="370" width="20" height="10" as="geometry" />
        </mxCell>
        <mxCell id="kuXYNpqV7Vp1GtxluRGK-202" value="&lt;font style=&quot;font-size: 12px;&quot; face=&quot;Times New Roman&quot;&gt;&lt;b style=&quot;&quot;&gt;I_L&lt;/b&gt;&lt;/font&gt;" style="text;html=1;align=center;verticalAlign=middle;whiteSpace=wrap;rounded=0;" vertex="1" parent="1">
          <mxGeometry x="570" y="530" width="20" height="10" as="geometry" />
        </mxCell>
        <mxCell id="kuXYNpqV7Vp1GtxluRGK-203" value="" style="endArrow=classic;html=1;rounded=0;exitX=1;exitY=0.5;exitDx=0;exitDy=0;entryX=0;entryY=0.5;entryDx=0;entryDy=0;strokeWidth=3;" edge="1" parent="1" source="kuXYNpqV7Vp1GtxluRGK-152" target="kuXYNpqV7Vp1GtxluRGK-32">
          <mxGeometry width="50" height="50" relative="1" as="geometry">
            <mxPoint x="500" y="380" as="sourcePoint" />
            <mxPoint x="550" y="330" as="targetPoint" />
          </mxGeometry>
        </mxCell>
        <mxCell id="kuXYNpqV7Vp1GtxluRGK-204" value="" style="endArrow=classic;html=1;rounded=0;exitX=1;exitY=0.5;exitDx=0;exitDy=0;entryX=0;entryY=0.5;entryDx=0;entryDy=0;strokeWidth=3;" edge="1" parent="1">
          <mxGeometry width="50" height="50" relative="1" as="geometry">
            <mxPoint x="380" y="304.84000000000003" as="sourcePoint" />
            <mxPoint x="400" y="304.84000000000003" as="targetPoint" />
          </mxGeometry>
        </mxCell>
        <mxCell id="kuXYNpqV7Vp1GtxluRGK-205" value="" style="endArrow=classic;html=1;rounded=0;exitX=1;exitY=0.5;exitDx=0;exitDy=0;entryX=0;entryY=0.5;entryDx=0;entryDy=0;strokeWidth=3;" edge="1" parent="1">
          <mxGeometry width="50" height="50" relative="1" as="geometry">
            <mxPoint x="380" y="384.84000000000003" as="sourcePoint" />
            <mxPoint x="400" y="384.84000000000003" as="targetPoint" />
          </mxGeometry>
        </mxCell>
        <mxCell id="kuXYNpqV7Vp1GtxluRGK-206" value="" style="endArrow=classic;html=1;rounded=0;exitX=1;exitY=0.5;exitDx=0;exitDy=0;entryX=0;entryY=0.5;entryDx=0;entryDy=0;strokeWidth=3;" edge="1" parent="1">
          <mxGeometry width="50" height="50" relative="1" as="geometry">
            <mxPoint x="380" y="464.84000000000003" as="sourcePoint" />
            <mxPoint x="400" y="464.84000000000003" as="targetPoint" />
          </mxGeometry>
        </mxCell>
        <mxCell id="kuXYNpqV7Vp1GtxluRGK-207" value="" style="endArrow=classic;html=1;rounded=0;exitX=1;exitY=0.5;exitDx=0;exitDy=0;entryX=0;entryY=0.5;entryDx=0;entryDy=0;strokeWidth=3;" edge="1" parent="1">
          <mxGeometry width="50" height="50" relative="1" as="geometry">
            <mxPoint x="380" y="549.84" as="sourcePoint" />
            <mxPoint x="400" y="549.84" as="targetPoint" />
          </mxGeometry>
        </mxCell>
        <mxCell id="kuXYNpqV7Vp1GtxluRGK-208" value="" style="endArrow=classic;html=1;rounded=0;exitX=1;exitY=0.5;exitDx=0;exitDy=0;entryX=0;entryY=0.5;entryDx=0;entryDy=0;strokeWidth=3;" edge="1" parent="1">
          <mxGeometry width="50" height="50" relative="1" as="geometry">
            <mxPoint x="380" y="629.84" as="sourcePoint" />
            <mxPoint x="400" y="629.84" as="targetPoint" />
          </mxGeometry>
        </mxCell>
      </root>
    </mxGraphModel>
  </diagram>
</mxfile>
